<svg xmlns="http://www.w3.org/2000/svg" style="max-height:500px" version="1.0" viewBox="450 822 2208 1596"><defs><clipPath id="b"><path d="M107 .719h2258.16v2023.68H107Zm0 0"/></clipPath><clipPath id="c"><path d="M0 0h2259v2025H0z"/></clipPath><clipPath id="d"><path d="M796.828 1675.598h217.586v217.586H796.828Zm0 0"/></clipPath><clipPath id="e"><path d="M905.621 1675.598c-60.082 0-108.793 48.707-108.793 108.793s48.711 108.793 108.793 108.793c60.086 0 108.793-48.707 108.793-108.793s-48.707-108.793-108.793-108.793m0 0"/></clipPath><clipPath id="g"><path d="M.828.598h217.586v217.586H.828Zm0 0"/></clipPath><clipPath id="h"><path d="M109.621.598C49.54.598.828 49.305.828 109.39S49.54 218.184 109.621 218.184c60.086 0 108.793-48.707 108.793-108.793S169.707.598 109.621.598m0 0"/></clipPath><clipPath id="f"><path d="M0 0h219v219H0z"/></clipPath><clipPath id="i"><path d="M506.055 1675.598H723.64v217.586H506.055Zm0 0"/></clipPath><clipPath id="j"><path d="M614.848 1675.598c-60.086 0-108.793 48.707-108.793 108.793s48.707 108.793 108.793 108.793c60.082 0 108.793-48.707 108.793-108.793s-48.711-108.793-108.793-108.793m0 0"/></clipPath><clipPath id="l"><path d="M.055.598H217.64v217.586H.055Zm0 0"/></clipPath><clipPath id="m"><path d="M108.848.598C48.762.598.055 49.305.055 109.39s48.707 108.793 108.793 108.793c60.082 0 108.793-48.707 108.793-108.793S168.93.598 108.848.598m0 0"/></clipPath><clipPath id="k"><path d="M0 0h218v219H0z"/></clipPath><clipPath id="n"><path d="M215.277 1675.598h217.586v217.586H215.277Zm0 0"/></clipPath><clipPath id="o"><path d="M324.07 1675.598c-60.082 0-108.793 48.707-108.793 108.793s48.711 108.793 108.793 108.793c60.086 0 108.793-48.707 108.793-108.793s-48.707-108.793-108.793-108.793m0 0"/></clipPath><clipPath id="q"><path d="M.277.598h217.586v217.586H.277Zm0 0"/></clipPath><clipPath id="r"><path d="M109.07.598C48.988.598.277 49.305.277 109.39S48.988 218.184 109.07 218.184c60.086 0 108.793-48.707 108.793-108.793S169.156.598 109.07.598m0 0"/></clipPath><clipPath id="p"><path d="M0 0h218v219H0z"/></clipPath><clipPath id="s"><path d="M238 802h776v775H238Zm0 0"/></clipPath><clipPath id="t"><path d="m1014.387 1576.824-468.793 335.613-559.922-782.12 468.793-335.61Zm0 0"/></clipPath><clipPath id="u"><path d="m1014.387 1576.824-468.793 335.613-559.922-782.12 468.793-335.61Zm0 0"/></clipPath><clipPath id="a"><path d="M0 0h2366v2025H0z"/></clipPath></defs><g clip-path="url(#a)" transform="translate(313 486)"><g clip-path="url(#b)"><g clip-path="url(#c)" transform="translate(107)"><path d="M405.253 1593.788h-277.86q-34.297.002-34.296-34.297V461.772q-.002-34.312 34.297-34.312h277.86q162.076.002 280.858 44.172 118.78 44.173 196.813 123.937 78.047 79.752 115.781 185.672 37.735 105.91 37.735 229.39 0 123.487-37.735 229.407-37.735 105.908-115.36 185.672-77.61 79.752-196.39 123.922c-79.18 29.437-173.078 44.156-281.703 44.156m-54.875-933.062v699.796h78.89c62.313 0 115.618-9.004 159.923-27.015q66.467-27.013 108.484-75.031 42.029-48.029 61.75-111.485 19.734-63.468 19.734-136.36c0-48.593-6.578-94.038-19.734-136.343q-19.722-63.467-61.313-111.5-41.595-48.03-108.062-75.047-66.457-27.014-160.781-27.015ZM1177.112 1628.085V461.772q-.002-34.312 34.297-34.312h180.094c17.726 0 31.453 7.433 41.171 22.297l516.25 766.687 6.86-5.14q-14.579-30.874-26.156-60.891-11.582-30.013-18.438-69.031-6.86-39.012-6.86-96.469V803.101q0-132.937 33.438-217.407 33.452-84.466 91.344-129.922 57.889-45.451 132.5-62.609v1166.328q-.001 34.299-34.297 34.297h-180.094q-26.594.002-41.172-22.297l-516.265-766.687-6.86 5.156q14.58 30.88 26.157 60.89 11.576 30.019 18.437 69.032c4.57 26.011 6.86 58.172 6.86 96.484v181.797q-.002 132.926-33.016 217.406-33.017 84.47-91.328 129.922-58.314 45.45-132.922 62.594m0 0"/></g></g><g clip-path="url(#d)"><g clip-path="url(#e)"><g clip-path="url(#f)" transform="translate(796 1675)"><g clip-path="url(#g)"><g clip-path="url(#h)"><path fill="#ffde59" d="M.828.598h217.586v217.586H.828Zm0 0"/></g></g></g></g></g><g clip-path="url(#i)"><g clip-path="url(#j)"><g clip-path="url(#k)" transform="translate(506 1675)"><g clip-path="url(#l)"><g clip-path="url(#m)"><path fill="#00bf63" d="M.055.598H217.64v217.586H.055Zm0 0"/></g></g></g></g></g><g clip-path="url(#n)"><g clip-path="url(#o)"><g clip-path="url(#p)" transform="translate(215 1675)"><g clip-path="url(#q)"><g clip-path="url(#r)"><path fill="#38b6ff" d="M.277.598h217.586v217.586H.277Zm0 0"/></g></g></g></g></g><g clip-path="url(#s)"><g clip-path="url(#t)"><g clip-path="url(#u)"><path fill="#00bf63" d="M1013.883 1576.125s-719.496-16.918-768.844-117.36C195.691 1358.32 446.008 802.25 446.008 802.25s-127.914 515.527-72.832 592.469c34.203 47.777 532.27 173.133 640.707 181.406m0 0"/></g></g></g></g></svg>