<svg xmlns="http://www.w3.org/2000/svg" xmlns:xlink="http://www.w3.org/1999/xlink" width="4000" zoomAndPan="magnify" viewBox="0 0 3000 2999.999989" height="4000" preserveAspectRatio="xMidYMid meet" version="1.0"><defs><g/><clipPath id="8f361b75e8"><path d="M 107 0.679688 L 2365.160156 0.679688 L 2365.160156 2025.078125 L 107 2025.078125 Z M 107 0.679688 " clip-rule="nonzero"/></clipPath><clipPath id="2a8bb4ecd8"><rect x="0" width="2259" y="0" height="2026"/></clipPath><clipPath id="d57c6eda65"><path d="M 796.828125 1674.597656 L 1014.414062 1674.597656 L 1014.414062 1892.183594 L 796.828125 1892.183594 Z M 796.828125 1674.597656 " clip-rule="nonzero"/></clipPath><clipPath id="a985c507d2"><path d="M 905.621094 1674.597656 C 845.539062 1674.597656 796.828125 1723.304688 796.828125 1783.390625 C 796.828125 1843.472656 845.539062 1892.183594 905.621094 1892.183594 C 965.707031 1892.183594 1014.414062 1843.472656 1014.414062 1783.390625 C 1014.414062 1723.304688 965.707031 1674.597656 905.621094 1674.597656 Z M 905.621094 1674.597656 " clip-rule="nonzero"/></clipPath><clipPath id="b7d9e3cb03"><path d="M 0.828125 0.597656 L 218.414062 0.597656 L 218.414062 218.183594 L 0.828125 218.183594 Z M 0.828125 0.597656 " clip-rule="nonzero"/></clipPath><clipPath id="039bbd35dd"><path d="M 109.621094 0.597656 C 49.539062 0.597656 0.828125 49.304688 0.828125 109.390625 C 0.828125 169.472656 49.539062 218.183594 109.621094 218.183594 C 169.707031 218.183594 218.414062 169.472656 218.414062 109.390625 C 218.414062 49.304688 169.707031 0.597656 109.621094 0.597656 Z M 109.621094 0.597656 " clip-rule="nonzero"/></clipPath><clipPath id="4dee5ca21f"><rect x="0" width="219" y="0" height="219"/></clipPath><clipPath id="c43bdda9e8"><path d="M 506.054688 1674.597656 L 723.640625 1674.597656 L 723.640625 1892.183594 L 506.054688 1892.183594 Z M 506.054688 1674.597656 " clip-rule="nonzero"/></clipPath><clipPath id="7d27743a28"><path d="M 614.847656 1674.597656 C 554.761719 1674.597656 506.054688 1723.304688 506.054688 1783.390625 C 506.054688 1843.472656 554.761719 1892.183594 614.847656 1892.183594 C 674.929688 1892.183594 723.640625 1843.472656 723.640625 1783.390625 C 723.640625 1723.304688 674.929688 1674.597656 614.847656 1674.597656 Z M 614.847656 1674.597656 " clip-rule="nonzero"/></clipPath><clipPath id="38a0bf82c0"><path d="M 0.0546875 0.597656 L 217.640625 0.597656 L 217.640625 218.183594 L 0.0546875 218.183594 Z M 0.0546875 0.597656 " clip-rule="nonzero"/></clipPath><clipPath id="2b0a479018"><path d="M 108.847656 0.597656 C 48.761719 0.597656 0.0546875 49.304688 0.0546875 109.390625 C 0.0546875 169.472656 48.761719 218.183594 108.847656 218.183594 C 168.929688 218.183594 217.640625 169.472656 217.640625 109.390625 C 217.640625 49.304688 168.929688 0.597656 108.847656 0.597656 Z M 108.847656 0.597656 " clip-rule="nonzero"/></clipPath><clipPath id="834e98b3aa"><rect x="0" width="218" y="0" height="219"/></clipPath><clipPath id="581abe2dc7"><path d="M 215.277344 1674.597656 L 432.863281 1674.597656 L 432.863281 1892.183594 L 215.277344 1892.183594 Z M 215.277344 1674.597656 " clip-rule="nonzero"/></clipPath><clipPath id="420c123067"><path d="M 324.070312 1674.597656 C 263.988281 1674.597656 215.277344 1723.304688 215.277344 1783.390625 C 215.277344 1843.472656 263.988281 1892.183594 324.070312 1892.183594 C 384.15625 1892.183594 432.863281 1843.472656 432.863281 1783.390625 C 432.863281 1723.304688 384.15625 1674.597656 324.070312 1674.597656 Z M 324.070312 1674.597656 " clip-rule="nonzero"/></clipPath><clipPath id="2adfff61e9"><path d="M 0.277344 0.597656 L 217.863281 0.597656 L 217.863281 218.183594 L 0.277344 218.183594 Z M 0.277344 0.597656 " clip-rule="nonzero"/></clipPath><clipPath id="e02e402aa3"><path d="M 109.070312 0.597656 C 48.988281 0.597656 0.277344 49.304688 0.277344 109.390625 C 0.277344 169.472656 48.988281 218.183594 109.070312 218.183594 C 169.15625 218.183594 217.863281 169.472656 217.863281 109.390625 C 217.863281 49.304688 169.15625 0.597656 109.070312 0.597656 Z M 109.070312 0.597656 " clip-rule="nonzero"/></clipPath><clipPath id="66ae49771a"><rect x="0" width="218" y="0" height="219"/></clipPath><clipPath id="0f81e489cd"><path d="M 238 801 L 1014 801 L 1014 1576 L 238 1576 Z M 238 801 " clip-rule="nonzero"/></clipPath><clipPath id="7d71742e50"><path d="M 1014.386719 1575.824219 L 545.59375 1911.433594 L -14.328125 1129.316406 L 454.464844 793.707031 Z M 1014.386719 1575.824219 " clip-rule="nonzero"/></clipPath><clipPath id="b48f5de781"><path d="M 1014.386719 1575.824219 L 545.59375 1911.433594 L -14.328125 1129.316406 L 454.464844 793.707031 Z M 1014.386719 1575.824219 " clip-rule="nonzero"/></clipPath><clipPath id="989cca30e6"><rect x="0" width="2366" y="0" height="2026"/></clipPath></defs><rect x="-300" width="3600" fill="#ffffff" y="-299.999999" height="3599.999987" fill-opacity="1"/><rect x="-300" width="3600" fill="#000000" y="-299.999999" height="3599.999987" fill-opacity="1"/><g transform="matrix(1, 0, 0, 1, 313, 487)"><g clip-path="url(#989cca30e6)"><g clip-path="url(#8f361b75e8)"><g transform="matrix(1, 0, 0, 1, 107, 0.000000000000341061)"><g clip-path="url(#2a8bb4ecd8)"><g fill="#ffffff" fill-opacity="1"><g transform="translate(0.471871, 1595.929888)"><g><path d="M 404.796875 0 L 126.921875 0 C 104.054688 0 92.625 -11.429688 92.625 -34.296875 L 92.625 -1132.046875 C 92.625 -1154.921875 104.054688 -1166.359375 126.921875 -1166.359375 L 404.796875 -1166.359375 C 512.859375 -1166.359375 606.476562 -1151.632812 685.65625 -1122.1875 C 764.84375 -1092.75 830.453125 -1051.441406 882.484375 -998.265625 C 934.515625 -945.097656 973.109375 -883.207031 998.265625 -812.59375 C 1023.421875 -741.976562 1036 -665.503906 1036 -583.171875 C 1036 -500.847656 1023.421875 -424.378906 998.265625 -353.765625 C 973.109375 -283.148438 934.65625 -221.253906 882.90625 -168.078125 C 831.164062 -114.910156 765.703125 -73.601562 686.515625 -44.15625 C 607.335938 -14.71875 513.429688 0 404.796875 0 Z M 349.90625 -933.09375 L 349.90625 -233.265625 L 428.8125 -233.265625 C 491.125 -233.265625 544.4375 -242.269531 588.75 -260.28125 C 633.0625 -278.289062 669.222656 -303.304688 697.234375 -335.328125 C 725.253906 -367.347656 745.835938 -404.507812 758.984375 -446.8125 C 772.140625 -489.125 778.71875 -534.578125 778.71875 -583.171875 C 778.71875 -631.773438 772.140625 -677.226562 758.984375 -719.53125 C 745.835938 -761.84375 725.398438 -799.007812 697.671875 -831.03125 C 669.941406 -863.050781 633.921875 -888.066406 589.609375 -906.078125 C 545.296875 -924.085938 491.695312 -933.09375 428.8125 -933.09375 Z M 349.90625 -933.09375 "/></g></g></g><g fill="#ffffff" fill-opacity="1"><g transform="translate(1082.78252, 1595.929888)"><g><path d="M 94.34375 34.296875 L 94.34375 -1132.046875 C 94.34375 -1154.921875 105.773438 -1166.359375 128.640625 -1166.359375 L 308.734375 -1166.359375 C 326.460938 -1166.359375 340.1875 -1158.925781 349.90625 -1144.0625 L 866.1875 -377.34375 L 873.046875 -382.5 C 863.328125 -403.082031 854.609375 -423.378906 846.890625 -443.390625 C 839.171875 -463.398438 833.023438 -486.410156 828.453125 -512.421875 C 823.878906 -538.441406 821.59375 -570.601562 821.59375 -608.90625 L 821.59375 -790.71875 C 821.59375 -879.34375 832.738281 -951.8125 855.03125 -1008.125 C 877.332031 -1064.445312 907.78125 -1107.757812 946.375 -1138.0625 C 984.96875 -1168.363281 1029.132812 -1189.226562 1078.875 -1200.65625 L 1078.875 -34.296875 C 1078.875 -11.429688 1067.441406 0 1044.578125 0 L 864.484375 0 C 846.753906 0 833.03125 -7.429688 823.3125 -22.296875 L 307.03125 -789 L 300.171875 -783.859375 C 309.890625 -763.273438 318.609375 -742.976562 326.328125 -722.96875 C 334.046875 -702.957031 340.191406 -679.941406 344.765625 -653.921875 C 349.335938 -627.910156 351.625 -595.753906 351.625 -557.453125 L 351.625 -375.640625 C 351.625 -287.015625 340.617188 -214.539062 318.609375 -158.21875 C 296.597656 -101.90625 266.148438 -58.597656 227.265625 -28.296875 C 188.390625 2.003906 144.082031 22.867188 94.34375 34.296875 Z M 94.34375 34.296875 "/></g></g></g></g></g></g><g clip-path="url(#d57c6eda65)"><g clip-path="url(#a985c507d2)"><g transform="matrix(1, 0, 0, 1, 796, 1674)"><g clip-path="url(#4dee5ca21f)"><g clip-path="url(#b7d9e3cb03)"><g clip-path="url(#039bbd35dd)"><path fill="#ffde59" d="M 0.828125 0.597656 L 218.414062 0.597656 L 218.414062 218.183594 L 0.828125 218.183594 Z M 0.828125 0.597656 " fill-opacity="1" fill-rule="nonzero"/></g></g></g></g></g></g><g clip-path="url(#c43bdda9e8)"><g clip-path="url(#7d27743a28)"><g transform="matrix(1, 0, 0, 1, 506, 1674)"><g clip-path="url(#834e98b3aa)"><g clip-path="url(#38a0bf82c0)"><g clip-path="url(#2b0a479018)"><path fill="#00bf63" d="M 0.0546875 0.597656 L 217.640625 0.597656 L 217.640625 218.183594 L 0.0546875 218.183594 Z M 0.0546875 0.597656 " fill-opacity="1" fill-rule="nonzero"/></g></g></g></g></g></g><g clip-path="url(#581abe2dc7)"><g clip-path="url(#420c123067)"><g transform="matrix(1, 0, 0, 1, 215, 1674)"><g clip-path="url(#66ae49771a)"><g clip-path="url(#2adfff61e9)"><g clip-path="url(#e02e402aa3)"><path fill="#38b6ff" d="M 0.277344 0.597656 L 217.863281 0.597656 L 217.863281 218.183594 L 0.277344 218.183594 Z M 0.277344 0.597656 " fill-opacity="1" fill-rule="nonzero"/></g></g></g></g></g></g><g clip-path="url(#0f81e489cd)"><g clip-path="url(#7d71742e50)"><g clip-path="url(#b48f5de781)"><path fill="#00bf63" d="M 1013.882812 1575.121094 C 1013.882812 1575.121094 294.386719 1558.207031 245.039062 1457.761719 C 195.691406 1357.320312 446.007812 801.25 446.007812 801.25 C 446.007812 801.25 318.09375 1316.777344 373.175781 1393.71875 C 407.378906 1441.496094 905.445312 1566.851562 1013.882812 1575.121094 Z M 1013.882812 1575.121094 " fill-opacity="1" fill-rule="nonzero"/></g></g></g></g></g></svg>